<svg width="295" height="118" viewBox="0 0 295 118" fill="none" xmlns="http://www.w3.org/2000/svg">
<path d="M18.3312 28V8.4H23.0912V28H18.3312ZM20.5432 20.496V16.52H30.6792V20.496H20.5432ZM20.5432 12.6V8.4H31.8272V12.6H20.5432ZM35.4158 28V13.132H39.8958V28H35.4158ZM37.6558 10.192C36.8158 10.192 36.1531 9.996 35.6678 9.604C35.2011 9.19333 34.9678 8.61467 34.9678 7.868C34.9678 7.196 35.2104 6.64533 35.6958 6.216C36.1811 5.78667 36.8344 5.572 37.6558 5.572C38.4958 5.572 39.1491 5.77733 39.6158 6.188C40.0824 6.58 40.3158 7.14 40.3158 7.868C40.3158 8.55867 40.0731 9.11867 39.5878 9.548C39.1211 9.97733 38.4771 10.192 37.6558 10.192ZM44.1052 28V13.132H48.3612L48.5012 16.156L47.6052 16.492C47.8105 15.82 48.1745 15.2133 48.6972 14.672C49.2385 14.112 49.8825 13.664 50.6292 13.328C51.3759 12.992 52.1599 12.824 52.9812 12.824C54.1012 12.824 55.0439 13.0573 55.8092 13.524C56.5745 13.972 57.1532 14.6533 57.5452 15.568C57.9372 16.464 58.1332 17.5653 58.1332 18.872V28H53.6252V19.236C53.6252 18.6387 53.5412 18.144 53.3732 17.752C53.2052 17.36 52.9439 17.0707 52.5892 16.884C52.2532 16.6787 51.8332 16.5853 51.3292 16.604C50.9372 16.604 50.5732 16.6693 50.2372 16.8C49.9012 16.912 49.6119 17.0893 49.3692 17.332C49.1265 17.556 48.9305 17.8173 48.7812 18.116C48.6505 18.4147 48.5852 18.7413 48.5852 19.096V28H46.3732C45.8505 28 45.4025 28 45.0292 28C44.6559 28 44.3479 28 44.1052 28ZM67.5066 28.308C66.2186 28.308 65.0706 27.9813 64.0626 27.328C63.0733 26.656 62.2893 25.7413 61.7106 24.584C61.132 23.408 60.8426 22.0733 60.8426 20.58C60.8426 19.0867 61.132 17.7613 61.7106 16.604C62.2893 15.428 63.0826 14.504 64.0906 13.832C65.0986 13.16 66.256 12.824 67.5626 12.824C68.2346 12.824 68.8786 12.9267 69.4946 13.132C70.1106 13.3373 70.6706 13.6173 71.1746 13.972C71.6786 14.3267 72.0893 14.7373 72.4066 15.204C72.724 15.652 72.9106 16.1187 72.9666 16.604L71.9026 16.856V7.28H76.4106V28H72.2386L71.9866 24.612L72.8826 24.752C72.8266 25.2187 72.64 25.6667 72.3226 26.096C72.024 26.5253 71.632 26.908 71.1466 27.244C70.6613 27.5613 70.1013 27.8133 69.4666 28C68.8506 28.2053 68.1973 28.308 67.5066 28.308ZM68.6546 24.584C69.3453 24.584 69.9426 24.416 70.4466 24.08C70.9506 23.744 71.3333 23.2773 71.5946 22.68C71.8746 22.0827 72.0146 21.3827 72.0146 20.58C72.0146 19.7587 71.8746 19.0493 71.5946 18.452C71.3333 17.8547 70.9506 17.388 70.4466 17.052C69.9426 16.716 69.3453 16.548 68.6546 16.548C67.964 16.548 67.3666 16.716 66.8626 17.052C66.3773 17.388 65.9946 17.8547 65.7146 18.452C65.4346 19.0493 65.2946 19.7587 65.2946 20.58C65.2946 21.3827 65.4346 22.0827 65.7146 22.68C65.9946 23.2773 66.3773 23.744 66.8626 24.08C67.3666 24.416 67.964 24.584 68.6546 24.584ZM91.0437 34.44L94.4317 26.46L94.4877 28.756L87.3197 13.132H92.3877L95.5237 20.608C95.6917 20.9813 95.8504 21.3827 95.9997 21.812C96.149 22.2413 96.261 22.652 96.3357 23.044L95.7197 23.408C95.8317 23.128 95.953 22.7827 96.0837 22.372C96.233 21.9427 96.3917 21.4853 96.5597 21L99.3037 13.132H104.4L98.0717 28L95.4957 34.44H91.0437ZM113.258 28.28C111.708 28.28 110.327 27.944 109.114 27.272C107.919 26.6 106.967 25.6853 106.258 24.528C105.567 23.3707 105.222 22.0453 105.222 20.552C105.222 19.0587 105.567 17.7333 106.258 16.576C106.967 15.4187 107.919 14.504 109.114 13.832C110.327 13.16 111.708 12.824 113.258 12.824C114.807 12.824 116.179 13.16 117.374 13.832C118.587 14.504 119.539 15.4187 120.23 16.576C120.92 17.7333 121.266 19.0587 121.266 20.552C121.266 22.0453 120.92 23.3707 120.23 24.528C119.539 25.6853 118.587 26.6 117.374 27.272C116.179 27.944 114.807 28.28 113.258 28.28ZM113.258 24.416C113.93 24.416 114.527 24.248 115.05 23.912C115.572 23.576 115.983 23.1187 116.282 22.54C116.58 21.9613 116.72 21.2987 116.702 20.552C116.72 19.8053 116.58 19.1427 116.282 18.564C115.983 17.9667 115.572 17.5 115.05 17.164C114.527 16.828 113.93 16.66 113.258 16.66C112.586 16.66 111.979 16.828 111.438 17.164C110.915 17.5 110.504 17.9667 110.206 18.564C109.907 19.1427 109.767 19.8053 109.786 20.552C109.767 21.2987 109.907 21.9613 110.206 22.54C110.504 23.1187 110.915 23.576 111.438 23.912C111.979 24.248 112.586 24.416 113.258 24.416ZM129.263 28.308C128.162 28.308 127.219 28.0747 126.435 27.608C125.67 27.1227 125.072 26.432 124.643 25.536C124.232 24.64 124.027 23.5667 124.027 22.316V13.132H128.535V21.7C128.535 22.2973 128.628 22.8107 128.815 23.24C129.002 23.6693 129.282 24.0053 129.655 24.248C130.028 24.472 130.476 24.584 130.999 24.584C131.391 24.584 131.746 24.5187 132.063 24.388C132.399 24.2573 132.679 24.08 132.903 23.856C133.146 23.6133 133.332 23.3427 133.463 23.044C133.594 22.7267 133.659 22.3813 133.659 22.008V13.132H138.167V28H133.939L133.743 24.948L134.583 24.612C134.359 25.3213 133.986 25.956 133.463 26.516C132.94 27.0573 132.315 27.496 131.587 27.832C130.859 28.1493 130.084 28.308 129.263 28.308ZM142.16 28V13.132H146.416L146.612 17.976L145.772 17.052C145.996 16.2493 146.36 15.5307 146.864 14.896C147.387 14.2613 147.993 13.7573 148.684 13.384C149.375 13.0107 150.112 12.824 150.896 12.824C151.232 12.824 151.54 12.852 151.82 12.908C152.119 12.964 152.389 13.0293 152.632 13.104L151.4 18.06C151.195 17.9293 150.915 17.8267 150.56 17.752C150.224 17.6587 149.869 17.612 149.496 17.612C149.085 17.612 148.703 17.6867 148.348 17.836C147.993 17.9667 147.695 18.1627 147.452 18.424C147.209 18.6853 147.013 18.9933 146.864 19.348C146.733 19.7027 146.668 20.104 146.668 20.552V28H142.16ZM163.871 34.16V13.132H168.127L168.295 16.464L167.455 16.212C167.585 15.596 167.903 15.036 168.407 14.532C168.911 14.028 169.545 13.6267 170.311 13.328C171.095 13.0107 171.916 12.852 172.775 12.852C174.044 12.852 175.173 13.188 176.163 13.86C177.152 14.5133 177.927 15.4187 178.487 16.576C179.065 17.7147 179.355 19.04 179.355 20.552C179.355 22.0453 179.065 23.3707 178.487 24.528C177.927 25.6853 177.143 26.6 176.135 27.272C175.145 27.9253 174.007 28.252 172.719 28.252C171.879 28.252 171.076 28.0933 170.311 27.776C169.545 27.4587 168.901 27.0293 168.379 26.488C167.856 25.9467 167.511 25.3587 167.343 24.724L168.379 24.332V34.16H163.871ZM171.627 24.472C172.299 24.472 172.887 24.3133 173.391 23.996C173.895 23.66 174.287 23.2027 174.567 22.624C174.847 22.0453 174.987 21.3547 174.987 20.552C174.987 19.768 174.847 19.0867 174.567 18.508C174.287 17.9107 173.895 17.4533 173.391 17.136C172.905 16.8 172.317 16.632 171.627 16.632C170.936 16.632 170.339 16.7907 169.835 17.108C169.331 17.4253 168.939 17.8827 168.659 18.48C168.379 19.0773 168.239 19.768 168.239 20.552C168.239 21.3547 168.379 22.0453 168.659 22.624C168.939 23.2027 169.331 23.66 169.835 23.996C170.339 24.3133 170.936 24.472 171.627 24.472ZM187.816 28.252C186.565 28.252 185.445 27.9253 184.456 27.272C183.485 26.6 182.711 25.6853 182.132 24.528C181.553 23.352 181.264 22.0267 181.264 20.552C181.264 19.04 181.553 17.7053 182.132 16.548C182.711 15.3907 183.504 14.4853 184.512 13.832C185.52 13.16 186.668 12.824 187.956 12.824C188.665 12.824 189.309 12.9267 189.888 13.132C190.485 13.3373 191.008 13.6267 191.456 14C191.904 14.3547 192.287 14.7747 192.604 15.26C192.921 15.7267 193.155 16.2307 193.304 16.772L192.38 16.66V13.132H196.832V28H192.296V24.416L193.304 24.388C193.155 24.9107 192.912 25.4053 192.576 25.872C192.24 26.3387 191.829 26.7493 191.344 27.104C190.859 27.4587 190.317 27.7387 189.72 27.944C189.123 28.1493 188.488 28.252 187.816 28.252ZM189.048 24.472C189.739 24.472 190.336 24.3133 190.84 23.996C191.344 23.6787 191.736 23.2307 192.016 22.652C192.296 22.0547 192.436 21.3547 192.436 20.552C192.436 19.7493 192.296 19.0587 192.016 18.48C191.736 17.8827 191.344 17.4253 190.84 17.108C190.336 16.772 189.739 16.604 189.048 16.604C188.376 16.604 187.788 16.772 187.284 17.108C186.799 17.4253 186.416 17.8827 186.136 18.48C185.856 19.0587 185.716 19.7493 185.716 20.552C185.716 21.3547 185.856 22.0547 186.136 22.652C186.416 23.2307 186.799 23.6787 187.284 23.996C187.788 24.3133 188.376 24.472 189.048 24.472ZM200.785 28V13.132H205.041L205.237 17.976L204.397 17.052C204.621 16.2493 204.985 15.5307 205.489 14.896C206.012 14.2613 206.618 13.7573 207.309 13.384C208 13.0107 208.737 12.824 209.521 12.824C209.857 12.824 210.165 12.852 210.445 12.908C210.744 12.964 211.014 13.0293 211.257 13.104L210.025 18.06C209.82 17.9293 209.54 17.8267 209.185 17.752C208.849 17.6587 208.494 17.612 208.121 17.612C207.71 17.612 207.328 17.6867 206.973 17.836C206.618 17.9667 206.32 18.1627 206.077 18.424C205.834 18.6853 205.638 18.9933 205.489 19.348C205.358 19.7027 205.293 20.104 205.293 20.552V28H200.785ZM215.306 28V9.38H219.786V28H215.306ZM212.674 17.052V13.132H222.67V17.052H212.674ZM225.23 28V13.132H229.486L229.626 16.156L228.73 16.492C228.936 15.82 229.3 15.2133 229.822 14.672C230.364 14.112 231.008 13.664 231.754 13.328C232.501 12.992 233.285 12.824 234.106 12.824C235.226 12.824 236.169 13.0573 236.934 13.524C237.7 13.972 238.278 14.6533 238.67 15.568C239.062 16.464 239.258 17.5653 239.258 18.872V28H234.75V19.236C234.75 18.6387 234.666 18.144 234.498 17.752C234.33 17.36 234.069 17.0707 233.714 16.884C233.378 16.6787 232.958 16.5853 232.454 16.604C232.062 16.604 231.698 16.6693 231.362 16.8C231.026 16.912 230.737 17.0893 230.494 17.332C230.252 17.556 230.056 17.8173 229.906 18.116C229.776 18.4147 229.71 18.7413 229.71 19.096V28H227.498C226.976 28 226.528 28 226.154 28C225.781 28 225.473 28 225.23 28ZM250.088 28.28C248.445 28.28 247.017 27.9533 245.804 27.3C244.59 26.628 243.648 25.7227 242.976 24.584C242.304 23.4267 241.968 22.1107 241.968 20.636C241.968 19.4973 242.154 18.452 242.528 17.5C242.901 16.548 243.424 15.7267 244.096 15.036C244.768 14.3267 245.561 13.7853 246.476 13.412C247.409 13.02 248.426 12.824 249.528 12.824C250.573 12.824 251.525 13.0107 252.384 13.384C253.261 13.7573 254.017 14.28 254.652 14.952C255.286 15.624 255.772 16.4173 256.108 17.332C256.444 18.2467 256.593 19.2453 256.556 20.328L256.528 21.532H244.684L244.04 19.012H252.888L252.412 19.544V18.984C252.374 18.5173 252.225 18.1067 251.964 17.752C251.721 17.3787 251.394 17.0893 250.984 16.884C250.573 16.6787 250.106 16.576 249.584 16.576C248.856 16.576 248.23 16.7253 247.708 17.024C247.204 17.304 246.821 17.724 246.56 18.284C246.298 18.8253 246.168 19.4973 246.168 20.3C246.168 21.1213 246.336 21.84 246.672 22.456C247.026 23.0533 247.53 23.52 248.184 23.856C248.856 24.192 249.649 24.36 250.564 24.36C251.198 24.36 251.758 24.2667 252.244 24.08C252.748 23.8933 253.289 23.576 253.868 23.128L255.968 26.096C255.389 26.6 254.773 27.0107 254.12 27.328C253.466 27.6453 252.794 27.8787 252.104 28.028C251.432 28.196 250.76 28.28 250.088 28.28ZM259.41 28V13.132H263.666L263.862 17.976L263.022 17.052C263.246 16.2493 263.61 15.5307 264.114 14.896C264.637 14.2613 265.243 13.7573 265.934 13.384C266.625 13.0107 267.362 12.824 268.146 12.824C268.482 12.824 268.79 12.852 269.07 12.908C269.369 12.964 269.639 13.0293 269.882 13.104L268.65 18.06C268.445 17.9293 268.165 17.8267 267.81 17.752C267.474 17.6587 267.119 17.612 266.746 17.612C266.335 17.612 265.953 17.6867 265.598 17.836C265.243 17.9667 264.945 18.1627 264.702 18.424C264.459 18.6853 264.263 18.9933 264.114 19.348C263.983 19.7027 263.918 20.104 263.918 20.552V28H259.41ZM101.726 63L96.8262 48.132H101.558L104.302 57.792L103.714 57.68L106.794 50.176H109.426L112.674 57.708L112.03 57.764L114.774 48.132H119.506L114.438 63H111.134L107.914 55.02L108.25 55.076L105.03 63H101.726ZM122.082 63V48.132H126.562V63H122.082ZM124.322 45.192C123.482 45.192 122.819 44.996 122.334 44.604C121.867 44.1933 121.634 43.6147 121.634 42.868C121.634 42.196 121.876 41.6453 122.362 41.216C122.847 40.7867 123.5 40.572 124.322 40.572C125.162 40.572 125.815 40.7773 126.282 41.188C126.748 41.58 126.982 42.14 126.982 42.868C126.982 43.5587 126.739 44.1187 126.254 44.548C125.787 44.9773 125.143 45.192 124.322 45.192ZM132.003 63V44.38H136.483V63H132.003ZM129.371 52.052V48.132H139.367V52.052H129.371ZM141.927 63V42.28H146.323V51.156L145.427 51.492C145.633 50.82 145.997 50.2133 146.519 49.672C147.061 49.112 147.705 48.664 148.451 48.328C149.198 47.992 149.982 47.824 150.803 47.824C151.923 47.824 152.866 48.0573 153.631 48.524C154.397 48.972 154.975 49.6533 155.367 50.568C155.759 51.464 155.955 52.5653 155.955 53.872V63H151.447V54.236C151.447 53.6387 151.363 53.144 151.195 52.752C151.027 52.36 150.766 52.0707 150.411 51.884C150.075 51.6787 149.655 51.5853 149.151 51.604C148.759 51.604 148.395 51.6693 148.059 51.8C147.723 51.912 147.434 52.0893 147.191 52.332C146.949 52.556 146.753 52.8173 146.603 53.116C146.473 53.4147 146.407 53.7413 146.407 54.096V63H144.195C143.673 63 143.225 63 142.851 63C142.478 63 142.17 63 141.927 63ZM173.738 63.308C172.636 63.308 171.694 63.0747 170.91 62.608C170.144 62.1227 169.547 61.432 169.118 60.536C168.707 59.64 168.502 58.5667 168.502 57.316V48.132H173.01V56.7C173.01 57.2973 173.103 57.8107 173.29 58.24C173.476 58.6693 173.756 59.0053 174.13 59.248C174.503 59.472 174.951 59.584 175.474 59.584C175.866 59.584 176.22 59.5187 176.538 59.388C176.874 59.2573 177.154 59.08 177.378 58.856C177.62 58.6133 177.807 58.3427 177.938 58.044C178.068 57.7267 178.134 57.3813 178.134 57.008V48.132H182.642V63H178.414L178.218 59.948L179.058 59.612C178.834 60.3213 178.46 60.956 177.938 61.516C177.415 62.0573 176.79 62.496 176.062 62.832C175.334 63.1493 174.559 63.308 173.738 63.308ZM191.646 63.28C190.19 63.28 188.902 63.0467 187.782 62.58C186.681 62.1133 185.804 61.488 185.15 60.704L187.866 58.352C188.445 58.9307 189.098 59.36 189.826 59.64C190.554 59.9013 191.245 60.032 191.898 60.032C192.16 60.032 192.393 60.004 192.598 59.948C192.804 59.892 192.972 59.8173 193.102 59.724C193.252 59.612 193.364 59.4907 193.438 59.36C193.513 59.2107 193.55 59.0427 193.55 58.856C193.55 58.4827 193.382 58.1933 193.046 57.988C192.878 57.8947 192.598 57.7827 192.206 57.652C191.814 57.5213 191.31 57.372 190.694 57.204C189.817 56.98 189.052 56.7187 188.398 56.42C187.764 56.1027 187.241 55.7387 186.83 55.328C186.457 54.936 186.168 54.5067 185.962 54.04C185.757 53.5547 185.654 53.0133 185.654 52.416C185.654 51.7253 185.813 51.1 186.13 50.54C186.466 49.98 186.905 49.4947 187.446 49.084C188.006 48.6733 188.641 48.3653 189.35 48.16C190.078 47.936 190.825 47.824 191.59 47.824C192.412 47.824 193.196 47.9173 193.942 48.104C194.689 48.2907 195.38 48.552 196.014 48.888C196.668 49.224 197.246 49.6253 197.75 50.092L195.398 52.724C195.062 52.4067 194.68 52.1267 194.25 51.884C193.84 51.6227 193.41 51.4173 192.962 51.268C192.514 51.1187 192.104 51.044 191.73 51.044C191.45 51.044 191.198 51.072 190.974 51.128C190.769 51.1653 190.592 51.24 190.442 51.352C190.293 51.4453 190.181 51.5667 190.106 51.716C190.032 51.8467 189.994 52.0053 189.994 52.192C189.994 52.3787 190.041 52.556 190.134 52.724C190.246 52.892 190.396 53.032 190.582 53.144C190.769 53.256 191.068 53.3867 191.478 53.536C191.889 53.6667 192.449 53.8347 193.158 54.04C194.036 54.2827 194.792 54.5533 195.426 54.852C196.061 55.1507 196.565 55.5053 196.938 55.916C197.237 56.2333 197.461 56.6067 197.61 57.036C197.76 57.4467 197.834 57.8947 197.834 58.38C197.834 59.332 197.564 60.1813 197.022 60.928C196.5 61.656 195.772 62.2347 194.838 62.664C193.905 63.0747 192.841 63.28 191.646 63.28Z" fill="#1F1216"/>
<path d="M42.5971 95L46.3491 85.2H47.5951L51.3191 95H50.1291L47.7351 88.644C47.6697 88.4667 47.5951 88.2613 47.5111 88.028C47.4364 87.7853 47.3524 87.538 47.2591 87.286C47.1751 87.0247 47.0911 86.7727 47.0071 86.53C46.9324 86.2873 46.8624 86.0727 46.7971 85.886H47.0771C47.0024 86.1193 46.9231 86.3573 46.8391 86.6C46.7644 86.8333 46.6851 87.0713 46.6011 87.314C46.5171 87.5473 46.4331 87.7807 46.3491 88.014C46.2651 88.2473 46.1811 88.4807 46.0971 88.714L43.7171 95H42.5971ZM44.1931 92.298L44.5991 91.234H49.2331L49.6811 92.298H44.1931ZM52.675 95V87.692H53.725L53.753 89.358L53.543 89.428C53.6177 89.148 53.739 88.896 53.907 88.672C54.0843 88.4387 54.2943 88.238 54.537 88.07C54.7797 87.902 55.0457 87.776 55.335 87.692C55.6243 87.5987 55.9277 87.552 56.245 87.552C56.6277 87.552 56.9683 87.6173 57.267 87.748C57.575 87.8693 57.8317 88.084 58.037 88.392C58.2517 88.6907 58.415 89.0873 58.527 89.582L58.275 89.456L58.373 89.218C58.4663 89.0033 58.6017 88.798 58.779 88.602C58.9657 88.3967 59.1757 88.2147 59.409 88.056C59.6517 87.8973 59.913 87.776 60.193 87.692C60.4823 87.5987 60.7763 87.552 61.075 87.552C61.5883 87.552 62.0223 87.664 62.377 87.888C62.7317 88.1027 62.9977 88.434 63.175 88.882C63.3617 89.33 63.455 89.8993 63.455 90.59V95H62.377V90.646C62.377 90.1607 62.3163 89.764 62.195 89.456C62.0737 89.148 61.8917 88.9193 61.649 88.77C61.4157 88.6113 61.117 88.532 60.753 88.532C60.4357 88.532 60.1417 88.588 59.871 88.7C59.6097 88.8027 59.381 88.952 59.185 89.148C58.9983 89.3347 58.849 89.5493 58.737 89.792C58.6343 90.0347 58.583 90.296 58.583 90.576V95H57.519V90.632C57.519 90.1653 57.4537 89.778 57.323 89.47C57.2017 89.162 57.0197 88.9287 56.777 88.77C56.5343 88.6113 56.2357 88.532 55.881 88.532C55.573 88.532 55.2883 88.588 55.027 88.7C54.7657 88.8027 54.537 88.9473 54.341 89.134C54.1543 89.3207 54.005 89.5353 53.893 89.778C53.7903 90.0207 53.739 90.282 53.739 90.562V95H52.675ZM68.6649 95.14C67.9369 95.14 67.2882 94.9813 66.7189 94.664C66.1589 94.3467 65.7202 93.9033 65.4029 93.334C65.0855 92.7647 64.9269 92.1113 64.9269 91.374C64.9269 90.8047 65.0155 90.2913 65.1929 89.834C65.3702 89.3673 65.6175 88.9613 65.9349 88.616C66.2615 88.2707 66.6489 88.0047 67.0969 87.818C67.5449 87.622 68.0302 87.524 68.5529 87.524C69.0475 87.524 69.4955 87.6127 69.8969 87.79C70.3075 87.9673 70.6575 88.2147 70.9469 88.532C71.2455 88.84 71.4695 89.2087 71.6189 89.638C71.7682 90.0673 71.8335 90.5387 71.8149 91.052L71.8009 91.542H65.7109L65.5569 90.66H71.0029L70.7509 90.898V90.562C70.7322 90.226 70.6342 89.904 70.4569 89.596C70.2795 89.2787 70.0275 89.022 69.7009 88.826C69.3835 88.63 69.0009 88.532 68.5529 88.532C68.0302 88.532 67.5775 88.6393 67.1949 88.854C66.8122 89.0593 66.5182 89.3673 66.3129 89.778C66.1075 90.1887 66.0049 90.6973 66.0049 91.304C66.0049 91.8827 66.1169 92.3867 66.3409 92.816C66.5649 93.236 66.8822 93.5627 67.2929 93.796C67.7129 94.0293 68.2169 94.146 68.8049 94.146C69.1502 94.146 69.4909 94.09 69.8269 93.978C70.1722 93.8567 70.5502 93.6233 70.9609 93.278L71.5069 94.034C71.2922 94.2487 71.0355 94.44 70.7369 94.608C70.4382 94.7667 70.1115 94.8973 69.7569 95C69.4022 95.0933 69.0382 95.14 68.6649 95.14ZM74.3142 95V85.774H75.3642V95H74.3142ZM72.6622 88.7V87.692H77.2122V88.7H72.6622ZM82.4113 95V87.692H83.4613L83.4893 89.358L83.2793 89.428C83.354 89.148 83.4753 88.896 83.6433 88.672C83.8207 88.4387 84.0307 88.238 84.2733 88.07C84.516 87.902 84.782 87.776 85.0713 87.692C85.3607 87.5987 85.664 87.552 85.9813 87.552C86.364 87.552 86.7047 87.6173 87.0033 87.748C87.3113 87.8693 87.568 88.084 87.7733 88.392C87.988 88.6907 88.1513 89.0873 88.2633 89.582L88.0113 89.456L88.1093 89.218C88.2027 89.0033 88.338 88.798 88.5153 88.602C88.702 88.3967 88.912 88.2147 89.1453 88.056C89.388 87.8973 89.6493 87.776 89.9293 87.692C90.2187 87.5987 90.5127 87.552 90.8113 87.552C91.3247 87.552 91.7587 87.664 92.1133 87.888C92.468 88.1027 92.734 88.434 92.9113 88.882C93.098 89.33 93.1913 89.8993 93.1913 90.59V95H92.1133V90.646C92.1133 90.1607 92.0527 89.764 91.9313 89.456C91.81 89.148 91.628 88.9193 91.3853 88.77C91.152 88.6113 90.8533 88.532 90.4893 88.532C90.172 88.532 89.878 88.588 89.6073 88.7C89.346 88.8027 89.1173 88.952 88.9213 89.148C88.7347 89.3347 88.5853 89.5493 88.4733 89.792C88.3707 90.0347 88.3193 90.296 88.3193 90.576V95H87.2553V90.632C87.2553 90.1653 87.19 89.778 87.0593 89.47C86.938 89.162 86.756 88.9287 86.5133 88.77C86.2707 88.6113 85.972 88.532 85.6173 88.532C85.3093 88.532 85.0247 88.588 84.7633 88.7C84.502 88.8027 84.2733 88.9473 84.0773 89.134C83.8907 89.3207 83.7413 89.5353 83.6293 89.778C83.5267 90.0207 83.4753 90.282 83.4753 90.562V95H82.4113ZM95.4612 95V87.692H96.5112V95H95.4612ZM95.9792 86.11C95.7178 86.11 95.5172 86.0447 95.3772 85.914C95.2465 85.774 95.1812 85.5873 95.1812 85.354C95.1812 85.1207 95.2512 84.934 95.3912 84.794C95.5312 84.654 95.7272 84.584 95.9792 84.584C96.2312 84.584 96.4272 84.654 96.5672 84.794C96.7072 84.9247 96.7772 85.1113 96.7772 85.354C96.7772 85.578 96.7072 85.76 96.5672 85.9C96.4272 86.04 96.2312 86.11 95.9792 86.11ZM98.8042 95V87.692H99.8402L99.8822 89.218L99.7142 89.288C99.8076 88.9707 99.9896 88.6813 100.26 88.42C100.531 88.1587 100.853 87.9487 101.226 87.79C101.609 87.622 102.001 87.538 102.402 87.538C102.944 87.538 103.396 87.6453 103.76 87.86C104.124 88.0747 104.4 88.406 104.586 88.854C104.773 89.302 104.866 89.8713 104.866 90.562V95H103.802V90.618C103.802 90.1327 103.737 89.736 103.606 89.428C103.485 89.1107 103.294 88.8773 103.032 88.728C102.771 88.5787 102.449 88.5087 102.066 88.518C101.749 88.518 101.455 88.574 101.184 88.686C100.914 88.7887 100.68 88.9333 100.484 89.12C100.288 89.3067 100.134 89.5213 100.022 89.764C99.9102 90.0067 99.8542 90.268 99.8542 90.548V95H99.3362C99.2709 95 99.1962 95 99.1122 95C99.0282 95 98.9256 95 98.8042 95ZM107.151 95V87.692H108.201V95H107.151ZM107.669 86.11C107.407 86.11 107.207 86.0447 107.067 85.914C106.936 85.774 106.871 85.5873 106.871 85.354C106.871 85.1207 106.941 84.934 107.081 84.794C107.221 84.654 107.417 84.584 107.669 84.584C107.921 84.584 108.117 84.654 108.257 84.794C108.397 84.9247 108.467 85.1113 108.467 85.354C108.467 85.578 108.397 85.76 108.257 85.9C108.117 86.04 107.921 86.11 107.669 86.11ZM110.48 95V87.692H111.53L111.558 89.358L111.348 89.428C111.422 89.148 111.544 88.896 111.712 88.672C111.889 88.4387 112.099 88.238 112.342 88.07C112.584 87.902 112.85 87.776 113.14 87.692C113.429 87.5987 113.732 87.552 114.05 87.552C114.432 87.552 114.773 87.6173 115.072 87.748C115.38 87.8693 115.636 88.084 115.842 88.392C116.056 88.6907 116.22 89.0873 116.332 89.582L116.08 89.456L116.178 89.218C116.271 89.0033 116.406 88.798 116.584 88.602C116.77 88.3967 116.98 88.2147 117.214 88.056C117.456 87.8973 117.718 87.776 117.998 87.692C118.287 87.5987 118.581 87.552 118.88 87.552C119.393 87.552 119.827 87.664 120.182 87.888C120.536 88.1027 120.802 88.434 120.98 88.882C121.166 89.33 121.26 89.8993 121.26 90.59V95H120.182V90.646C120.182 90.1607 120.121 89.764 120 89.456C119.878 89.148 119.696 88.9193 119.454 88.77C119.22 88.6113 118.922 88.532 118.558 88.532C118.24 88.532 117.946 88.588 117.676 88.7C117.414 88.8027 117.186 88.952 116.99 89.148C116.803 89.3347 116.654 89.5493 116.542 89.792C116.439 90.0347 116.388 90.296 116.388 90.576V95H115.324V90.632C115.324 90.1653 115.258 89.778 115.128 89.47C115.006 89.162 114.824 88.9287 114.582 88.77C114.339 88.6113 114.04 88.532 113.686 88.532C113.378 88.532 113.093 88.588 112.832 88.7C112.57 88.8027 112.342 88.9473 112.146 89.134C111.959 89.3207 111.81 89.5353 111.698 89.778C111.595 90.0207 111.544 90.282 111.544 90.562V95H110.48ZM127.159 95V87.692H128.209L128.237 89.358L128.027 89.428C128.102 89.148 128.223 88.896 128.391 88.672C128.569 88.4387 128.779 88.238 129.021 88.07C129.264 87.902 129.53 87.776 129.819 87.692C130.109 87.5987 130.412 87.552 130.729 87.552C131.112 87.552 131.453 87.6173 131.751 87.748C132.059 87.8693 132.316 88.084 132.521 88.392C132.736 88.6907 132.899 89.0873 133.011 89.582L132.759 89.456L132.857 89.218C132.951 89.0033 133.086 88.798 133.263 88.602C133.45 88.3967 133.66 88.2147 133.893 88.056C134.136 87.8973 134.397 87.776 134.677 87.692C134.967 87.5987 135.261 87.552 135.559 87.552C136.073 87.552 136.507 87.664 136.861 87.888C137.216 88.1027 137.482 88.434 137.659 88.882C137.846 89.33 137.939 89.8993 137.939 90.59V95H136.861V90.646C136.861 90.1607 136.801 89.764 136.679 89.456C136.558 89.148 136.376 88.9193 136.133 88.77C135.9 88.6113 135.601 88.532 135.237 88.532C134.92 88.532 134.626 88.588 134.355 88.7C134.094 88.8027 133.865 88.952 133.669 89.148C133.483 89.3347 133.333 89.5493 133.221 89.792C133.119 90.0347 133.067 90.296 133.067 90.576V95H132.003V90.632C132.003 90.1653 131.938 89.778 131.807 89.47C131.686 89.162 131.504 88.9287 131.261 88.77C131.019 88.6113 130.72 88.532 130.365 88.532C130.057 88.532 129.773 88.588 129.511 88.7C129.25 88.8027 129.021 88.9473 128.825 89.134C128.639 89.3207 128.489 89.5353 128.377 89.778C128.275 90.0207 128.223 90.282 128.223 90.562V95H127.159ZM143.163 95.14C142.435 95.14 141.787 94.9767 141.217 94.65C140.657 94.3233 140.214 93.8707 139.887 93.292C139.57 92.7133 139.411 92.0553 139.411 91.318C139.411 90.59 139.57 89.9413 139.887 89.372C140.214 88.8027 140.657 88.3547 141.217 88.028C141.787 87.7013 142.435 87.538 143.163 87.538C143.882 87.538 144.521 87.7013 145.081 88.028C145.651 88.3547 146.094 88.8027 146.411 89.372C146.738 89.9413 146.901 90.59 146.901 91.318C146.901 92.0553 146.738 92.7133 146.411 93.292C146.094 93.8707 145.651 94.3233 145.081 94.65C144.521 94.9767 143.882 95.14 143.163 95.14ZM143.163 94.146C143.677 94.146 144.134 94.0247 144.535 93.782C144.937 93.53 145.249 93.194 145.473 92.774C145.697 92.3447 145.809 91.8593 145.809 91.318C145.809 90.7767 145.697 90.296 145.473 89.876C145.249 89.456 144.937 89.1293 144.535 88.896C144.134 88.6533 143.677 88.532 143.163 88.532C142.65 88.532 142.188 88.6533 141.777 88.896C141.376 89.1293 141.059 89.4607 140.825 89.89C140.601 90.31 140.494 90.786 140.503 91.318C140.494 91.8593 140.601 92.3447 140.825 92.774C141.059 93.194 141.376 93.53 141.777 93.782C142.188 94.0247 142.65 94.146 143.163 94.146ZM148.461 95V84.64H149.511V95H148.461ZM151.606 95V84.64H152.656V95H151.606ZM155.002 95V87.692H156.052V95H155.002ZM155.52 86.11C155.259 86.11 155.058 86.0447 154.918 85.914C154.788 85.774 154.722 85.5873 154.722 85.354C154.722 85.1207 154.792 84.934 154.932 84.794C155.072 84.654 155.268 84.584 155.52 84.584C155.772 84.584 155.968 84.654 156.108 84.794C156.248 84.9247 156.318 85.1113 156.318 85.354C156.318 85.578 156.248 85.76 156.108 85.9C155.968 86.04 155.772 86.11 155.52 86.11ZM159.353 95V85.774H160.403V95H159.353ZM157.701 88.7V87.692H162.251V88.7H157.701ZM167.464 95V87.692H168.5L168.542 89.218L168.374 89.288C168.468 88.9707 168.65 88.6813 168.92 88.42C169.191 88.1587 169.513 87.9487 169.886 87.79C170.269 87.622 170.661 87.538 171.062 87.538C171.604 87.538 172.056 87.6453 172.42 87.86C172.784 88.0747 173.06 88.406 173.246 88.854C173.433 89.302 173.526 89.8713 173.526 90.562V95H172.462V90.618C172.462 90.1327 172.397 89.736 172.266 89.428C172.145 89.1107 171.954 88.8773 171.692 88.728C171.431 88.5787 171.109 88.5087 170.726 88.518C170.409 88.518 170.115 88.574 169.844 88.686C169.574 88.7887 169.34 88.9333 169.144 89.12C168.948 89.3067 168.794 89.5213 168.682 89.764C168.57 90.0067 168.514 90.268 168.514 90.548V95H167.996C167.931 95 167.856 95 167.772 95C167.688 95 167.586 95 167.464 95ZM178.765 95.14C178.037 95.14 177.388 94.9767 176.819 94.65C176.259 94.3233 175.815 93.8707 175.489 93.292C175.171 92.7133 175.013 92.0553 175.013 91.318C175.013 90.59 175.171 89.9413 175.489 89.372C175.815 88.8027 176.259 88.3547 176.819 88.028C177.388 87.7013 178.037 87.538 178.765 87.538C179.483 87.538 180.123 87.7013 180.683 88.028C181.252 88.3547 181.695 88.8027 182.013 89.372C182.339 89.9413 182.503 90.59 182.503 91.318C182.503 92.0553 182.339 92.7133 182.013 93.292C181.695 93.8707 181.252 94.3233 180.683 94.65C180.123 94.9767 179.483 95.14 178.765 95.14ZM178.765 94.146C179.278 94.146 179.735 94.0247 180.137 93.782C180.538 93.53 180.851 93.194 181.075 92.774C181.299 92.3447 181.411 91.8593 181.411 91.318C181.411 90.7767 181.299 90.296 181.075 89.876C180.851 89.456 180.538 89.1293 180.137 88.896C179.735 88.6533 179.278 88.532 178.765 88.532C178.251 88.532 177.789 88.6533 177.379 88.896C176.977 89.1293 176.66 89.4607 176.427 89.89C176.203 90.31 176.095 90.786 176.105 91.318C176.095 91.8593 176.203 92.3447 176.427 92.774C176.66 93.194 176.977 93.53 177.379 93.782C177.789 94.0247 178.251 94.146 178.765 94.146ZM184.035 95V87.692H185.071L185.113 89.218L184.945 89.288C185.038 88.9707 185.22 88.6813 185.491 88.42C185.761 88.1587 186.083 87.9487 186.457 87.79C186.839 87.622 187.231 87.538 187.633 87.538C188.174 87.538 188.627 87.6453 188.991 87.86C189.355 88.0747 189.63 88.406 189.817 88.854C190.003 89.302 190.097 89.8713 190.097 90.562V95H189.033V90.618C189.033 90.1327 188.967 89.736 188.837 89.428C188.715 89.1107 188.524 88.8773 188.263 88.728C188.001 88.5787 187.679 88.5087 187.297 88.518C186.979 88.518 186.685 88.574 186.415 88.686C186.144 88.7887 185.911 88.9333 185.715 89.12C185.519 89.3067 185.365 89.5213 185.253 89.764C185.141 90.0067 185.085 90.268 185.085 90.548V95H184.567C184.501 95 184.427 95 184.343 95C184.259 95 184.156 95 184.035 95ZM198.993 95.14C198.33 95.14 197.733 94.9767 197.201 94.65C196.678 94.3233 196.263 93.8753 195.955 93.306C195.656 92.7273 195.507 92.074 195.507 91.346C195.507 90.6087 195.661 89.9553 195.969 89.386C196.277 88.8073 196.692 88.3547 197.215 88.028C197.738 87.7013 198.326 87.538 198.979 87.538C199.343 87.538 199.693 87.594 200.029 87.706C200.374 87.818 200.682 87.9767 200.953 88.182C201.224 88.378 201.448 88.6067 201.625 88.868C201.802 89.12 201.91 89.386 201.947 89.666L201.625 89.554V84.64H202.675V95H201.639L201.611 93.18L201.877 93.082C201.84 93.3433 201.732 93.6 201.555 93.852C201.387 94.0947 201.172 94.314 200.911 94.51C200.65 94.706 200.351 94.86 200.015 94.972C199.688 95.084 199.348 95.14 198.993 95.14ZM199.147 94.174C199.632 94.174 200.066 94.0527 200.449 93.81C200.832 93.5673 201.13 93.2313 201.345 92.802C201.569 92.3727 201.681 91.8827 201.681 91.332C201.681 90.7813 201.569 90.296 201.345 89.876C201.13 89.4467 200.832 89.1107 200.449 88.868C200.066 88.616 199.632 88.49 199.147 88.49C198.643 88.49 198.2 88.616 197.817 88.868C197.444 89.1107 197.145 89.4467 196.921 89.876C196.706 90.296 196.599 90.7813 196.599 91.332C196.599 91.8733 196.706 92.3587 196.921 92.788C197.136 93.2173 197.434 93.558 197.817 93.81C198.2 94.0527 198.643 94.174 199.147 94.174ZM207.94 95.14C207.212 95.14 206.564 94.9813 205.994 94.664C205.434 94.3467 204.996 93.9033 204.678 93.334C204.361 92.7647 204.202 92.1113 204.202 91.374C204.202 90.8047 204.291 90.2913 204.468 89.834C204.646 89.3673 204.893 88.9613 205.21 88.616C205.537 88.2707 205.924 88.0047 206.372 87.818C206.82 87.622 207.306 87.524 207.828 87.524C208.323 87.524 208.771 87.6127 209.172 87.79C209.583 87.9673 209.933 88.2147 210.222 88.532C210.521 88.84 210.745 89.2087 210.894 89.638C211.044 90.0673 211.109 90.5387 211.09 91.052L211.076 91.542H204.986L204.832 90.66H210.278L210.026 90.898V90.562C210.008 90.226 209.91 89.904 209.732 89.596C209.555 89.2787 209.303 89.022 208.976 88.826C208.659 88.63 208.276 88.532 207.828 88.532C207.306 88.532 206.853 88.6393 206.47 88.854C206.088 89.0593 205.794 89.3673 205.588 89.778C205.383 90.1887 205.28 90.6973 205.28 91.304C205.28 91.8827 205.392 92.3867 205.616 92.816C205.84 93.236 206.158 93.5627 206.568 93.796C206.988 94.0293 207.492 94.146 208.08 94.146C208.426 94.146 208.766 94.09 209.102 93.978C209.448 93.8567 209.826 93.6233 210.236 93.278L210.782 94.034C210.568 94.2487 210.311 94.44 210.012 94.608C209.714 94.7667 209.387 94.8973 209.032 95C208.678 95.0933 208.314 95.14 207.94 95.14ZM214.976 95.14C214.35 95.14 213.79 95.0233 213.296 94.79C212.801 94.5567 212.409 94.2487 212.12 93.866L212.862 93.222C213.132 93.5487 213.45 93.796 213.814 93.964C214.187 94.132 214.602 94.216 215.06 94.216C215.293 94.216 215.503 94.1927 215.69 94.146C215.876 94.09 216.04 94.0107 216.18 93.908C216.32 93.8053 216.427 93.684 216.502 93.544C216.576 93.404 216.614 93.25 216.614 93.082C216.614 92.774 216.478 92.5173 216.208 92.312C216.086 92.228 215.914 92.144 215.69 92.06C215.466 91.9667 215.195 91.878 214.878 91.794C214.355 91.6447 213.921 91.4953 213.576 91.346C213.23 91.1873 212.96 91.0053 212.764 90.8C212.624 90.632 212.516 90.45 212.442 90.254C212.376 90.058 212.344 89.8433 212.344 89.61C212.344 89.3113 212.404 89.036 212.526 88.784C212.656 88.532 212.834 88.3127 213.058 88.126C213.291 87.93 213.562 87.7853 213.87 87.692C214.187 87.5893 214.528 87.538 214.892 87.538C215.237 87.538 215.578 87.5847 215.914 87.678C216.25 87.7713 216.562 87.9067 216.852 88.084C217.141 88.2613 217.388 88.4713 217.594 88.714L216.95 89.414C216.772 89.2273 216.576 89.0593 216.362 88.91C216.147 88.7607 215.918 88.644 215.676 88.56C215.442 88.476 215.2 88.434 214.948 88.434C214.724 88.434 214.514 88.462 214.318 88.518C214.131 88.574 213.968 88.6533 213.828 88.756C213.697 88.8493 213.594 88.966 213.52 89.106C213.454 89.246 213.422 89.4 213.422 89.568C213.422 89.708 213.45 89.834 213.506 89.946C213.562 90.058 213.641 90.156 213.744 90.24C213.874 90.3427 214.056 90.4407 214.29 90.534C214.532 90.618 214.831 90.7067 215.186 90.8C215.596 90.912 215.942 91.0287 216.222 91.15C216.511 91.262 216.749 91.3973 216.936 91.556C217.188 91.7427 217.365 91.9573 217.468 92.2C217.58 92.4427 217.636 92.718 217.636 93.026C217.636 93.4367 217.519 93.8007 217.286 94.118C217.062 94.4353 216.749 94.6873 216.348 94.874C215.946 95.0513 215.489 95.14 214.976 95.14ZM222.501 95.14C221.773 95.14 221.124 94.9813 220.555 94.664C219.995 94.3467 219.556 93.9033 219.239 93.334C218.921 92.7647 218.763 92.1113 218.763 91.374C218.763 90.8047 218.851 90.2913 219.029 89.834C219.206 89.3673 219.453 88.9613 219.771 88.616C220.097 88.2707 220.485 88.0047 220.933 87.818C221.381 87.622 221.866 87.524 222.389 87.524C222.883 87.524 223.331 87.6127 223.733 87.79C224.143 87.9673 224.493 88.2147 224.783 88.532C225.081 88.84 225.305 89.2087 225.455 89.638C225.604 90.0673 225.669 90.5387 225.651 91.052L225.637 91.542H219.547L219.393 90.66H224.839L224.587 90.898V90.562C224.568 90.226 224.47 89.904 224.293 89.596C224.115 89.2787 223.863 89.022 223.537 88.826C223.219 88.63 222.837 88.532 222.389 88.532C221.866 88.532 221.413 88.6393 221.031 88.854C220.648 89.0593 220.354 89.3673 220.149 89.778C219.943 90.1887 219.841 90.6973 219.841 91.304C219.841 91.8827 219.953 92.3867 220.177 92.816C220.401 93.236 220.718 93.5627 221.129 93.796C221.549 94.0293 222.053 94.146 222.641 94.146C222.986 94.146 223.327 94.09 223.663 93.978C224.008 93.8567 224.386 93.6233 224.797 93.278L225.343 94.034C225.128 94.2487 224.871 94.44 224.573 94.608C224.274 94.7667 223.947 94.8973 223.593 95C223.238 95.0933 222.874 95.14 222.501 95.14ZM227.142 95V87.692H228.192L228.22 89.638L228.108 89.372C228.211 89.0453 228.374 88.742 228.598 88.462C228.831 88.182 229.107 87.958 229.424 87.79C229.741 87.622 230.091 87.538 230.474 87.538C230.633 87.538 230.782 87.552 230.922 87.58C231.062 87.5987 231.179 87.6267 231.272 87.664L230.978 88.84C230.857 88.784 230.731 88.7467 230.6 88.728C230.479 88.7 230.362 88.686 230.25 88.686C229.933 88.686 229.648 88.742 229.396 88.854C229.144 88.966 228.929 89.1247 228.752 89.33C228.575 89.526 228.439 89.7547 228.346 90.016C228.253 90.2773 228.206 90.5573 228.206 90.856V95H227.142ZM234.955 95.14C234.395 95.14 233.919 95.028 233.527 94.804C233.144 94.5707 232.85 94.2347 232.645 93.796C232.449 93.3573 232.351 92.8113 232.351 92.158V87.692H233.415V91.948C233.415 92.4427 233.48 92.858 233.611 93.194C233.751 93.5207 233.956 93.768 234.227 93.936C234.507 94.104 234.847 94.188 235.249 94.188C235.557 94.188 235.841 94.1367 236.103 94.034C236.364 93.922 236.593 93.7727 236.789 93.586C236.985 93.3993 237.139 93.18 237.251 92.928C237.363 92.676 237.419 92.41 237.419 92.13V87.692H238.469V95H237.433L237.391 93.46L237.559 93.376C237.447 93.7027 237.26 94.0013 236.999 94.272C236.737 94.5333 236.425 94.7433 236.061 94.902C235.706 95.0607 235.337 95.14 234.955 95.14ZM240.513 95V87.692H241.549L241.591 89.218L241.423 89.288C241.517 88.9707 241.699 88.6813 241.969 88.42C242.24 88.1587 242.562 87.9487 242.935 87.79C243.318 87.622 243.71 87.538 244.111 87.538C244.653 87.538 245.105 87.6453 245.469 87.86C245.833 88.0747 246.109 88.406 246.295 88.854C246.482 89.302 246.575 89.8713 246.575 90.562V95H245.511V90.618C245.511 90.1327 245.446 89.736 245.315 89.428C245.194 89.1107 245.003 88.8773 244.741 88.728C244.48 88.5787 244.158 88.5087 243.775 88.518C243.458 88.518 243.164 88.574 242.893 88.686C242.623 88.7887 242.389 88.9333 242.193 89.12C241.997 89.3067 241.843 89.5213 241.731 89.764C241.619 90.0067 241.563 90.268 241.563 90.548V95H241.045C240.98 95 240.905 95 240.821 95C240.737 95 240.635 95 240.513 95ZM249.588 95V85.774H250.638V95H249.588ZM247.936 88.7V87.692H252.486V88.7H247.936ZM56.6689 114.14C56.0436 114.14 55.4836 114.023 54.9889 113.79C54.4943 113.557 54.1023 113.249 53.8129 112.866L54.5549 112.222C54.8256 112.549 55.1429 112.796 55.5069 112.964C55.8803 113.132 56.2956 113.216 56.7529 113.216C56.9863 113.216 57.1963 113.193 57.3829 113.146C57.5696 113.09 57.7329 113.011 57.8729 112.908C58.0129 112.805 58.1203 112.684 58.1949 112.544C58.2696 112.404 58.3069 112.25 58.3069 112.082C58.3069 111.774 58.1716 111.517 57.9009 111.312C57.7796 111.228 57.6069 111.144 57.3829 111.06C57.1589 110.967 56.8883 110.878 56.5709 110.794C56.0483 110.645 55.6143 110.495 55.2689 110.346C54.9236 110.187 54.6529 110.005 54.4569 109.8C54.3169 109.632 54.2096 109.45 54.1349 109.254C54.0696 109.058 54.0369 108.843 54.0369 108.61C54.0369 108.311 54.0976 108.036 54.2189 107.784C54.3496 107.532 54.5269 107.313 54.7509 107.126C54.9843 106.93 55.2549 106.785 55.5629 106.692C55.8803 106.589 56.2209 106.538 56.5849 106.538C56.9303 106.538 57.2709 106.585 57.6069 106.678C57.9429 106.771 58.2556 106.907 58.5449 107.084C58.8343 107.261 59.0816 107.471 59.2869 107.714L58.6429 108.414C58.4656 108.227 58.2696 108.059 58.0549 107.91C57.8403 107.761 57.6116 107.644 57.3689 107.56C57.1356 107.476 56.8929 107.434 56.6409 107.434C56.4169 107.434 56.2069 107.462 56.0109 107.518C55.8243 107.574 55.6609 107.653 55.5209 107.756C55.3903 107.849 55.2876 107.966 55.2129 108.106C55.1476 108.246 55.1149 108.4 55.1149 108.568C55.1149 108.708 55.1429 108.834 55.1989 108.946C55.2549 109.058 55.3343 109.156 55.4369 109.24C55.5676 109.343 55.7496 109.441 55.9829 109.534C56.2256 109.618 56.5243 109.707 56.8789 109.8C57.2896 109.912 57.6349 110.029 57.9149 110.15C58.2043 110.262 58.4423 110.397 58.6289 110.556C58.8809 110.743 59.0583 110.957 59.1609 111.2C59.2729 111.443 59.3289 111.718 59.3289 112.026C59.3289 112.437 59.2123 112.801 58.9789 113.118C58.7549 113.435 58.4423 113.687 58.0409 113.874C57.6396 114.051 57.1823 114.14 56.6689 114.14ZM61.2541 114V106.692H62.3041V114H61.2541ZM61.7721 105.11C61.5108 105.11 61.3101 105.045 61.1701 104.914C61.0395 104.774 60.9741 104.587 60.9741 104.354C60.9741 104.121 61.0441 103.934 61.1841 103.794C61.3241 103.654 61.5201 103.584 61.7721 103.584C62.0241 103.584 62.2201 103.654 62.3601 103.794C62.5001 103.925 62.5701 104.111 62.5701 104.354C62.5701 104.578 62.5001 104.76 62.3601 104.9C62.2201 105.04 62.0241 105.11 61.7721 105.11ZM65.6052 114V104.774H66.6552V114H65.6052ZM63.9532 107.7V106.692H68.5032V107.7H63.9532ZM76.5723 114.14C75.9377 114.14 75.3637 113.977 74.8503 113.65C74.337 113.314 73.931 112.861 73.6323 112.292C73.3337 111.713 73.1843 111.06 73.1843 110.332C73.1843 109.595 73.3383 108.941 73.6463 108.372C73.9543 107.803 74.365 107.355 74.8783 107.028C75.401 106.701 75.9843 106.538 76.6283 106.538C77.011 106.538 77.3657 106.594 77.6923 106.706C78.019 106.818 78.3083 106.977 78.5603 107.182C78.8217 107.378 79.0363 107.611 79.2043 107.882C79.3817 108.143 79.503 108.428 79.5683 108.736L79.2603 108.582L79.3023 106.692H80.3523V114H79.2883V112.208L79.5683 112.026C79.503 112.306 79.377 112.577 79.1903 112.838C79.0037 113.09 78.775 113.314 78.5043 113.51C78.243 113.706 77.9443 113.86 77.6083 113.972C77.2817 114.084 76.9363 114.14 76.5723 114.14ZM76.8103 113.132C77.2957 113.132 77.7297 113.015 78.1123 112.782C78.495 112.539 78.7937 112.208 79.0083 111.788C79.2323 111.359 79.3443 110.873 79.3443 110.332C79.3443 109.791 79.2323 109.31 79.0083 108.89C78.7937 108.47 78.495 108.139 78.1123 107.896C77.7297 107.653 77.2957 107.532 76.8103 107.532C76.3157 107.532 75.877 107.653 75.4943 107.896C75.121 108.139 74.8223 108.47 74.5983 108.89C74.3837 109.31 74.2763 109.791 74.2763 110.332C74.2763 110.864 74.3837 111.345 74.5983 111.774C74.813 112.194 75.1117 112.525 75.4943 112.768C75.877 113.011 76.3157 113.132 76.8103 113.132ZM82.426 114V103.64H83.476V114H82.426ZM85.8225 114V106.692H86.8725V114H85.8225ZM86.3405 105.11C86.0792 105.11 85.8785 105.045 85.7385 104.914C85.6078 104.774 85.5425 104.587 85.5425 104.354C85.5425 104.121 85.6125 103.934 85.7525 103.794C85.8925 103.654 86.0885 103.584 86.3405 103.584C86.5925 103.584 86.7885 103.654 86.9285 103.794C87.0685 103.925 87.1385 104.111 87.1385 104.354C87.1385 104.578 87.0685 104.76 86.9285 104.9C86.7885 105.04 86.5925 105.11 86.3405 105.11ZM94.7516 117.08V112.208L94.9756 112.082C94.9382 112.343 94.8309 112.6 94.6536 112.852C94.4856 113.095 94.2709 113.314 94.0096 113.51C93.7482 113.706 93.4542 113.86 93.1276 113.972C92.8009 114.084 92.4649 114.14 92.1196 114.14C91.4569 114.14 90.8642 113.977 90.3416 113.65C89.8189 113.323 89.4036 112.875 89.0956 112.306C88.7969 111.727 88.6476 111.074 88.6476 110.346C88.6476 109.609 88.7969 108.955 89.0956 108.386C89.4036 107.807 89.8189 107.355 90.3416 107.028C90.8642 106.701 91.4476 106.538 92.0916 106.538C92.4649 106.538 92.8149 106.599 93.1416 106.72C93.4776 106.832 93.7809 106.986 94.0516 107.182C94.3222 107.378 94.5462 107.607 94.7236 107.868C94.9009 108.12 95.0082 108.386 95.0456 108.666L94.7096 108.582L94.7516 106.678H95.8016V117.08H94.7516ZM92.2456 113.132C92.7309 113.132 93.1649 113.015 93.5476 112.782C93.9396 112.539 94.2476 112.208 94.4716 111.788C94.6956 111.368 94.8076 110.883 94.8076 110.332C94.8076 109.791 94.6956 109.31 94.4716 108.89C94.2476 108.47 93.9442 108.139 93.5616 107.896C93.1789 107.653 92.7402 107.532 92.2456 107.532C91.7509 107.532 91.3122 107.653 90.9296 107.896C90.5469 108.139 90.2436 108.47 90.0196 108.89C89.8049 109.31 89.6976 109.791 89.6976 110.332C89.6976 110.864 89.8049 111.345 90.0196 111.774C90.2342 112.194 90.5329 112.525 90.9156 112.768C91.2982 113.011 91.7416 113.132 92.2456 113.132ZM100.437 114.14C99.8772 114.14 99.4012 114.028 99.0092 113.804C98.6265 113.571 98.3325 113.235 98.1272 112.796C97.9312 112.357 97.8332 111.811 97.8332 111.158V106.692H98.8972V110.948C98.8972 111.443 98.9625 111.858 99.0932 112.194C99.2332 112.521 99.4385 112.768 99.7092 112.936C99.9892 113.104 100.33 113.188 100.731 113.188C101.039 113.188 101.324 113.137 101.585 113.034C101.847 112.922 102.075 112.773 102.271 112.586C102.467 112.399 102.621 112.18 102.733 111.928C102.845 111.676 102.901 111.41 102.901 111.13V106.692H103.951V114H102.915L102.873 112.46L103.041 112.376C102.929 112.703 102.743 113.001 102.481 113.272C102.22 113.533 101.907 113.743 101.543 113.902C101.189 114.061 100.82 114.14 100.437 114.14ZM108.852 114.14C108.217 114.14 107.643 113.977 107.13 113.65C106.616 113.314 106.21 112.861 105.912 112.292C105.613 111.713 105.464 111.06 105.464 110.332C105.464 109.595 105.618 108.941 105.926 108.372C106.234 107.803 106.644 107.355 107.158 107.028C107.68 106.701 108.264 106.538 108.908 106.538C109.29 106.538 109.645 106.594 109.972 106.706C110.298 106.818 110.588 106.977 110.84 107.182C111.101 107.378 111.316 107.611 111.484 107.882C111.661 108.143 111.782 108.428 111.848 108.736L111.54 108.582L111.582 106.692H112.632V114H111.568V112.208L111.848 112.026C111.782 112.306 111.656 112.577 111.47 112.838C111.283 113.09 111.054 113.314 110.784 113.51C110.522 113.706 110.224 113.86 109.888 113.972C109.561 114.084 109.216 114.14 108.852 114.14ZM109.09 113.132C109.575 113.132 110.009 113.015 110.392 112.782C110.774 112.539 111.073 112.208 111.288 111.788C111.512 111.359 111.624 110.873 111.624 110.332C111.624 109.791 111.512 109.31 111.288 108.89C111.073 108.47 110.774 108.139 110.392 107.896C110.009 107.653 109.575 107.532 109.09 107.532C108.595 107.532 108.156 107.653 107.774 107.896C107.4 108.139 107.102 108.47 106.878 108.89C106.663 109.31 106.556 109.791 106.556 110.332C106.556 110.864 106.663 111.345 106.878 111.774C107.092 112.194 107.391 112.525 107.774 112.768C108.156 113.011 108.595 113.132 109.09 113.132ZM121.569 114.14C120.906 114.14 120.309 113.977 119.777 113.65C119.254 113.323 118.839 112.875 118.531 112.306C118.232 111.727 118.083 111.074 118.083 110.346C118.083 109.609 118.237 108.955 118.545 108.386C118.853 107.807 119.268 107.355 119.791 107.028C120.314 106.701 120.902 106.538 121.555 106.538C121.919 106.538 122.269 106.594 122.605 106.706C122.95 106.818 123.258 106.977 123.529 107.182C123.8 107.378 124.024 107.607 124.201 107.868C124.378 108.12 124.486 108.386 124.523 108.666L124.201 108.554V103.64H125.251V114H124.215L124.187 112.18L124.453 112.082C124.416 112.343 124.308 112.6 124.131 112.852C123.963 113.095 123.748 113.314 123.487 113.51C123.226 113.706 122.927 113.86 122.591 113.972C122.264 114.084 121.924 114.14 121.569 114.14ZM121.723 113.174C122.208 113.174 122.642 113.053 123.025 112.81C123.408 112.567 123.706 112.231 123.921 111.802C124.145 111.373 124.257 110.883 124.257 110.332C124.257 109.781 124.145 109.296 123.921 108.876C123.706 108.447 123.408 108.111 123.025 107.868C122.642 107.616 122.208 107.49 121.723 107.49C121.219 107.49 120.776 107.616 120.393 107.868C120.02 108.111 119.721 108.447 119.497 108.876C119.282 109.296 119.175 109.781 119.175 110.332C119.175 110.873 119.282 111.359 119.497 111.788C119.712 112.217 120.01 112.558 120.393 112.81C120.776 113.053 121.219 113.174 121.723 113.174ZM130.53 114.14C129.802 114.14 129.154 113.977 128.584 113.65C128.024 113.323 127.581 112.871 127.254 112.292C126.937 111.713 126.778 111.055 126.778 110.318C126.778 109.59 126.937 108.941 127.254 108.372C127.581 107.803 128.024 107.355 128.584 107.028C129.154 106.701 129.802 106.538 130.53 106.538C131.249 106.538 131.888 106.701 132.448 107.028C133.018 107.355 133.461 107.803 133.778 108.372C134.105 108.941 134.268 109.59 134.268 110.318C134.268 111.055 134.105 111.713 133.778 112.292C133.461 112.871 133.018 113.323 132.448 113.65C131.888 113.977 131.249 114.14 130.53 114.14ZM130.53 113.146C131.044 113.146 131.501 113.025 131.902 112.782C132.304 112.53 132.616 112.194 132.84 111.774C133.064 111.345 133.176 110.859 133.176 110.318C133.176 109.777 133.064 109.296 132.84 108.876C132.616 108.456 132.304 108.129 131.902 107.896C131.501 107.653 131.044 107.532 130.53 107.532C130.017 107.532 129.555 107.653 129.144 107.896C128.743 108.129 128.426 108.461 128.192 108.89C127.968 109.31 127.861 109.786 127.87 110.318C127.861 110.859 127.968 111.345 128.192 111.774C128.426 112.194 128.743 112.53 129.144 112.782C129.555 113.025 130.017 113.146 130.53 113.146ZM135.828 114V103.64H136.878V114H135.828ZM142.042 114.14C141.314 114.14 140.665 113.977 140.096 113.65C139.536 113.323 139.093 112.871 138.766 112.292C138.449 111.713 138.29 111.055 138.29 110.318C138.29 109.59 138.449 108.941 138.766 108.372C139.093 107.803 139.536 107.355 140.096 107.028C140.665 106.701 141.314 106.538 142.042 106.538C142.761 106.538 143.4 106.701 143.96 107.028C144.529 107.355 144.973 107.803 145.29 108.372C145.617 108.941 145.78 109.59 145.78 110.318C145.78 111.055 145.617 111.713 145.29 112.292C144.973 112.871 144.529 113.323 143.96 113.65C143.4 113.977 142.761 114.14 142.042 114.14ZM142.042 113.146C142.555 113.146 143.013 113.025 143.414 112.782C143.815 112.53 144.128 112.194 144.352 111.774C144.576 111.345 144.688 110.859 144.688 110.318C144.688 109.777 144.576 109.296 144.352 108.876C144.128 108.456 143.815 108.129 143.414 107.896C143.013 107.653 142.555 107.532 142.042 107.532C141.529 107.532 141.067 107.653 140.656 107.896C140.255 108.129 139.937 108.461 139.704 108.89C139.48 109.31 139.373 109.786 139.382 110.318C139.373 110.859 139.48 111.345 139.704 111.774C139.937 112.194 140.255 112.53 140.656 112.782C141.067 113.025 141.529 113.146 142.042 113.146ZM147.312 114V106.692H148.362L148.39 108.638L148.278 108.372C148.381 108.045 148.544 107.742 148.768 107.462C149.001 107.182 149.277 106.958 149.594 106.79C149.911 106.622 150.261 106.538 150.644 106.538C150.803 106.538 150.952 106.552 151.092 106.58C151.232 106.599 151.349 106.627 151.442 106.664L151.148 107.84C151.027 107.784 150.901 107.747 150.77 107.728C150.649 107.7 150.532 107.686 150.42 107.686C150.103 107.686 149.818 107.742 149.566 107.854C149.314 107.966 149.099 108.125 148.922 108.33C148.745 108.526 148.609 108.755 148.516 109.016C148.423 109.277 148.376 109.557 148.376 109.856V114H147.312ZM159.427 114.14C158.764 114.14 158.167 113.977 157.635 113.65C157.112 113.323 156.697 112.875 156.389 112.306C156.09 111.727 155.941 111.074 155.941 110.346C155.941 109.609 156.095 108.955 156.403 108.386C156.711 107.807 157.126 107.355 157.649 107.028C158.171 106.701 158.759 106.538 159.413 106.538C159.777 106.538 160.127 106.594 160.463 106.706C160.808 106.818 161.116 106.977 161.387 107.182C161.657 107.378 161.881 107.607 162.059 107.868C162.236 108.12 162.343 108.386 162.381 108.666L162.059 108.554V103.64H163.109V114H162.073L162.045 112.18L162.311 112.082C162.273 112.343 162.166 112.6 161.989 112.852C161.821 113.095 161.606 113.314 161.345 113.51C161.083 113.706 160.785 113.86 160.449 113.972C160.122 114.084 159.781 114.14 159.427 114.14ZM159.581 113.174C160.066 113.174 160.5 113.053 160.883 112.81C161.265 112.567 161.564 112.231 161.779 111.802C162.003 111.373 162.115 110.883 162.115 110.332C162.115 109.781 162.003 109.296 161.779 108.876C161.564 108.447 161.265 108.111 160.883 107.868C160.5 107.616 160.066 107.49 159.581 107.49C159.077 107.49 158.633 107.616 158.251 107.868C157.877 108.111 157.579 108.447 157.355 108.876C157.14 109.296 157.033 109.781 157.033 110.332C157.033 110.873 157.14 111.359 157.355 111.788C157.569 112.217 157.868 112.558 158.251 112.81C158.633 113.053 159.077 113.174 159.581 113.174ZM168.388 114.14C167.66 114.14 167.011 113.977 166.442 113.65C165.882 113.323 165.439 112.871 165.112 112.292C164.795 111.713 164.636 111.055 164.636 110.318C164.636 109.59 164.795 108.941 165.112 108.372C165.439 107.803 165.882 107.355 166.442 107.028C167.011 106.701 167.66 106.538 168.388 106.538C169.107 106.538 169.746 106.701 170.306 107.028C170.875 107.355 171.319 107.803 171.636 108.372C171.963 108.941 172.126 109.59 172.126 110.318C172.126 111.055 171.963 111.713 171.636 112.292C171.319 112.871 170.875 113.323 170.306 113.65C169.746 113.977 169.107 114.14 168.388 114.14ZM168.388 113.146C168.901 113.146 169.359 113.025 169.76 112.782C170.161 112.53 170.474 112.194 170.698 111.774C170.922 111.345 171.034 110.859 171.034 110.318C171.034 109.777 170.922 109.296 170.698 108.876C170.474 108.456 170.161 108.129 169.76 107.896C169.359 107.653 168.901 107.532 168.388 107.532C167.875 107.532 167.413 107.653 167.002 107.896C166.601 108.129 166.283 108.461 166.05 108.89C165.826 109.31 165.719 109.786 165.728 110.318C165.719 110.859 165.826 111.345 166.05 111.774C166.283 112.194 166.601 112.53 167.002 112.782C167.413 113.025 167.875 113.146 168.388 113.146ZM180.438 114.14C179.803 114.14 179.229 113.977 178.716 113.65C178.202 113.314 177.796 112.861 177.498 112.292C177.199 111.713 177.05 111.06 177.05 110.332C177.05 109.595 177.204 108.941 177.512 108.372C177.82 107.803 178.23 107.355 178.744 107.028C179.266 106.701 179.85 106.538 180.494 106.538C180.876 106.538 181.231 106.594 181.558 106.706C181.884 106.818 182.174 106.977 182.426 107.182C182.687 107.378 182.902 107.611 183.07 107.882C183.247 108.143 183.368 108.428 183.434 108.736L183.126 108.582L183.168 106.692H184.218V114H183.154V112.208L183.434 112.026C183.368 112.306 183.242 112.577 183.056 112.838C182.869 113.09 182.64 113.314 182.37 113.51C182.108 113.706 181.81 113.86 181.474 113.972C181.147 114.084 180.802 114.14 180.438 114.14ZM180.676 113.132C181.161 113.132 181.595 113.015 181.978 112.782C182.36 112.539 182.659 112.208 182.874 111.788C183.098 111.359 183.21 110.873 183.21 110.332C183.21 109.791 183.098 109.31 182.874 108.89C182.659 108.47 182.36 108.139 181.978 107.896C181.595 107.653 181.161 107.532 180.676 107.532C180.181 107.532 179.742 107.653 179.36 107.896C178.986 108.139 178.688 108.47 178.464 108.89C178.249 109.31 178.142 109.791 178.142 110.332C178.142 110.864 178.249 111.345 178.464 111.774C178.678 112.194 178.977 112.525 179.36 112.768C179.742 113.011 180.181 113.132 180.676 113.132ZM186.249 114V106.692H187.299L187.327 108.358L187.117 108.428C187.192 108.148 187.313 107.896 187.481 107.672C187.659 107.439 187.869 107.238 188.111 107.07C188.354 106.902 188.62 106.776 188.909 106.692C189.199 106.599 189.502 106.552 189.819 106.552C190.202 106.552 190.543 106.617 190.841 106.748C191.149 106.869 191.406 107.084 191.611 107.392C191.826 107.691 191.989 108.087 192.101 108.582L191.849 108.456L191.947 108.218C192.041 108.003 192.176 107.798 192.353 107.602C192.54 107.397 192.75 107.215 192.983 107.056C193.226 106.897 193.487 106.776 193.767 106.692C194.057 106.599 194.351 106.552 194.649 106.552C195.163 106.552 195.597 106.664 195.951 106.888C196.306 107.103 196.572 107.434 196.749 107.882C196.936 108.33 197.029 108.899 197.029 109.59V114H195.951V109.646C195.951 109.161 195.891 108.764 195.769 108.456C195.648 108.148 195.466 107.919 195.223 107.77C194.99 107.611 194.691 107.532 194.327 107.532C194.01 107.532 193.716 107.588 193.445 107.7C193.184 107.803 192.955 107.952 192.759 108.148C192.573 108.335 192.423 108.549 192.311 108.792C192.209 109.035 192.157 109.296 192.157 109.576V114H191.093V109.632C191.093 109.165 191.028 108.778 190.897 108.47C190.776 108.162 190.594 107.929 190.351 107.77C190.109 107.611 189.81 107.532 189.455 107.532C189.147 107.532 188.863 107.588 188.601 107.7C188.34 107.803 188.111 107.947 187.915 108.134C187.729 108.321 187.579 108.535 187.467 108.778C187.365 109.021 187.313 109.282 187.313 109.562V114H186.249ZM202.239 114.14C201.511 114.14 200.862 113.981 200.293 113.664C199.733 113.347 199.294 112.903 198.977 112.334C198.66 111.765 198.501 111.111 198.501 110.374C198.501 109.805 198.59 109.291 198.767 108.834C198.944 108.367 199.192 107.961 199.509 107.616C199.836 107.271 200.223 107.005 200.671 106.818C201.119 106.622 201.604 106.524 202.127 106.524C202.622 106.524 203.07 106.613 203.471 106.79C203.882 106.967 204.232 107.215 204.521 107.532C204.82 107.84 205.044 108.209 205.193 108.638C205.342 109.067 205.408 109.539 205.389 110.052L205.375 110.542H199.285L199.131 109.66H204.577L204.325 109.898V109.562C204.306 109.226 204.208 108.904 204.031 108.596C203.854 108.279 203.602 108.022 203.275 107.826C202.958 107.63 202.575 107.532 202.127 107.532C201.604 107.532 201.152 107.639 200.769 107.854C200.386 108.059 200.092 108.367 199.887 108.778C199.682 109.189 199.579 109.697 199.579 110.304C199.579 110.883 199.691 111.387 199.915 111.816C200.139 112.236 200.456 112.563 200.867 112.796C201.287 113.029 201.791 113.146 202.379 113.146C202.724 113.146 203.065 113.09 203.401 112.978C203.746 112.857 204.124 112.623 204.535 112.278L205.081 113.034C204.866 113.249 204.61 113.44 204.311 113.608C204.012 113.767 203.686 113.897 203.331 114C202.976 114.093 202.612 114.14 202.239 114.14ZM207.888 114V104.774H208.938V114H207.888ZM206.236 107.7V106.692H210.786V107.7H206.236ZM218.394 114.14C217.768 114.14 217.208 114.023 216.714 113.79C216.219 113.557 215.827 113.249 215.538 112.866L216.28 112.222C216.55 112.549 216.868 112.796 217.232 112.964C217.605 113.132 218.02 113.216 218.478 113.216C218.711 113.216 218.921 113.193 219.108 113.146C219.294 113.09 219.458 113.011 219.598 112.908C219.738 112.805 219.845 112.684 219.92 112.544C219.994 112.404 220.032 112.25 220.032 112.082C220.032 111.774 219.896 111.517 219.626 111.312C219.504 111.228 219.332 111.144 219.108 111.06C218.884 110.967 218.613 110.878 218.296 110.794C217.773 110.645 217.339 110.495 216.994 110.346C216.648 110.187 216.378 110.005 216.182 109.8C216.042 109.632 215.934 109.45 215.86 109.254C215.794 109.058 215.762 108.843 215.762 108.61C215.762 108.311 215.822 108.036 215.944 107.784C216.074 107.532 216.252 107.313 216.476 107.126C216.709 106.93 216.98 106.785 217.288 106.692C217.605 106.589 217.946 106.538 218.31 106.538C218.655 106.538 218.996 106.585 219.332 106.678C219.668 106.771 219.98 106.907 220.27 107.084C220.559 107.261 220.806 107.471 221.012 107.714L220.368 108.414C220.19 108.227 219.994 108.059 219.78 107.91C219.565 107.761 219.336 107.644 219.094 107.56C218.86 107.476 218.618 107.434 218.366 107.434C218.142 107.434 217.932 107.462 217.736 107.518C217.549 107.574 217.386 107.653 217.246 107.756C217.115 107.849 217.012 107.966 216.938 108.106C216.872 108.246 216.84 108.4 216.84 108.568C216.84 108.708 216.868 108.834 216.924 108.946C216.98 109.058 217.059 109.156 217.162 109.24C217.292 109.343 217.474 109.441 217.708 109.534C217.95 109.618 218.249 109.707 218.604 109.8C219.014 109.912 219.36 110.029 219.64 110.15C219.929 110.262 220.167 110.397 220.354 110.556C220.606 110.743 220.783 110.957 220.886 111.2C220.998 111.443 221.054 111.718 221.054 112.026C221.054 112.437 220.937 112.801 220.704 113.118C220.48 113.435 220.167 113.687 219.766 113.874C219.364 114.051 218.907 114.14 218.394 114.14ZM222.979 114V106.692H224.029V114H222.979ZM223.497 105.11C223.235 105.11 223.035 105.045 222.895 104.914C222.764 104.774 222.699 104.587 222.699 104.354C222.699 104.121 222.769 103.934 222.909 103.794C223.049 103.654 223.245 103.584 223.497 103.584C223.749 103.584 223.945 103.654 224.085 103.794C224.225 103.925 224.295 104.111 224.295 104.354C224.295 104.578 224.225 104.76 224.085 104.9C223.945 105.04 223.749 105.11 223.497 105.11ZM226.322 114V106.692H227.358L227.4 108.218L227.232 108.288C227.325 107.971 227.507 107.681 227.778 107.42C228.048 107.159 228.37 106.949 228.744 106.79C229.126 106.622 229.518 106.538 229.92 106.538C230.461 106.538 230.914 106.645 231.278 106.86C231.642 107.075 231.917 107.406 232.104 107.854C232.29 108.302 232.384 108.871 232.384 109.562V114H231.32V109.618C231.32 109.133 231.254 108.736 231.124 108.428C231.002 108.111 230.811 107.877 230.55 107.728C230.288 107.579 229.966 107.509 229.584 107.518C229.266 107.518 228.972 107.574 228.702 107.686C228.431 107.789 228.198 107.933 228.002 108.12C227.806 108.307 227.652 108.521 227.54 108.764C227.428 109.007 227.372 109.268 227.372 109.548V114H226.854C226.788 114 226.714 114 226.63 114C226.546 114 226.443 114 226.322 114ZM235.396 114V104.774H236.446V114H235.396ZM233.744 107.7V106.692H238.294V107.7H233.744ZM240.158 114.14C239.906 114.14 239.71 114.065 239.57 113.916C239.439 113.767 239.374 113.552 239.374 113.272C239.374 113.02 239.444 112.815 239.584 112.656C239.733 112.488 239.924 112.404 240.158 112.404C240.41 112.404 240.601 112.483 240.732 112.642C240.872 112.791 240.942 113.001 240.942 113.272C240.942 113.533 240.867 113.743 240.718 113.902C240.578 114.061 240.391 114.14 240.158 114.14Z" fill="#989394"/>
</svg>
